<svg xmlns="http://www.w3.org/2000/svg" viewBox="0 0 32 32" fill="none">
  <rect width="32" height="32" rx="8" fill="#0c0f1a"/>
  <rect width="32" height="32" rx="8" fill="url(#g)"/>
  <path d="M10 22V10h4.2c2.4 0 3.9 1.3 3.9 3.2 0 1.3-.7 2.2-1.8 2.7L19 22h-2.4l-2.1-5.4H12.2V22H10zm2.2-7.4h1.8c1.1 0 1.7-.5 1.7-1.3s-.6-1.3-1.7-1.3h-1.8v2.6zM20 22l3.2-12H26l3.2 12h-2.3l-.6-2.4h-3.6L22.3 22H20zm2.1-4.6h2.5l-1.2-4.8-1.3 4.8z" fill="#fff"/>
  <defs>
    <linearGradient id="g" x1="0" y1="0" x2="32" y2="32" gradientUnits="userSpaceOnUse">
      <stop stop-color="#a855f7" stop-opacity=".85"/>
      <stop offset="1" stop-color="#f9738a" stop-opacity=".75"/>
    </linearGradient>
  </defs>
</svg>
